# xmcd
#
# Track frame offsets: 
#        150
#        15427
#        31164
#        53857
#        71578
#        87091
#        105321
#        122497
#        139855
#        157077
#
# Disc length: 2293 seconds
#
# Revision: 0
# Processed by: cddbd v1.5.2PL0 Copyright (c) Steve Scherf et al.
# Submitted via: ExactAudioCopy v1.0b3
#
DISCID=7608f30a
DTITLE=林峯 - FIRST
DYEAR=2011
DGENRE=Pop
TTITLE0=One More Time
TTITLE1=太熱了
TTITLE2=讓我愛你一小時
TTITLE3=換個方式愛你
TTITLE4=不想讓你失望
TTITLE5=吻過吸血鬼
TTITLE6=愛在記憶中找你
TTITLE7=一直都在
TTITLE8=我們很好
TTITLE9=長假期
EXTD=
EXTT0=
EXTT1=
EXTT2=
EXTT3=
EXTT4=
EXTT5=
EXTT6=
EXTT7=
EXTT8=
EXTT9=
PLAYORDER=
